<?xml version="1.0" encoding="UTF-8" standalone="no"?>
<svg
   xmlns:dc="http://purl.org/dc/elements/1.1/"
   xmlns:cc="http://creativecommons.org/ns#"
   xmlns:rdf="http://www.w3.org/1999/02/22-rdf-syntax-ns#"
   xmlns:svg="http://www.w3.org/2000/svg"
   xmlns="http://www.w3.org/2000/svg"
   viewBox="0 0 250.97333 113.58667"
   height="62"
   width="138"
   xml:space="preserve"
   id="svg2"
   version="1.1"><metadata
     id="metadata8"><rdf:RDF><cc:Work
         rdf:about=""><dc:format>image/svg+xml</dc:format><dc:type
           rdf:resource="http://purl.org/dc/dcmitype/StillImage" /></cc:Work></rdf:RDF></metadata><defs
     id="defs6" /><g
     transform="matrix(1.3333333,0,0,-1.3333333,0,113.58667)"
     id="g10"><g
       transform="scale(0.1)"
       id="g12"><path
         id="path14"
         style="fill:#ec1d27;fill-opacity:1;fill-rule:nonzero;stroke:none"
         d="M 1882.31,0 H 0 V 851.855 H 1882.31 V 0" /><path
         id="path16"
         style="fill:#ffffff;fill-opacity:1;fill-rule:nonzero;stroke:none"
         d="M 1625.45,730.918 H 1730.8 V 231.691 h 89.32 V 105.742 h -194.67 v 625.176" /><path
         id="path18"
         style="fill:none;stroke:#ffffff;stroke-width:16.66670036;stroke-linecap:butt;stroke-linejoin:miter;stroke-miterlimit:4;stroke-dasharray:none;stroke-opacity:1"
         d="m 1829.28,697.715 c 0,-22.141 -17.95,-40.078 -40.08,-40.078 -22.13,0 -40.07,17.937 -40.07,40.078 0,22.129 17.94,40.066 40.07,40.066 22.13,0 40.08,-17.937 40.08,-40.066 z" /><path
         id="path20"
         style="fill:#ffffff;fill-opacity:1;fill-rule:nonzero;stroke:none"
         d="m 1779.13,700.586 h 11.95 c 2.54,0 4.53,0.266 5.96,0.793 1.44,0.527 2.53,1.363 3.28,2.519 0.74,1.153 1.11,2.411 1.11,3.77 0,1.98 -0.72,3.613 -2.17,4.902 -1.44,1.27 -3.71,1.914 -6.83,1.914 h -13.3 z m -5.57,-23.496 v 42.051 h 18.63 c 3.75,0 6.6,-0.379 8.56,-1.141 1.93,-0.754 3.49,-2.082 4.66,-3.996 1.18,-1.914 1.76,-4.031 1.76,-6.348 0,-2.988 -0.97,-5.5 -2.91,-7.547 -1.93,-2.05 -4.9,-3.351 -8.94,-3.898 1.48,-0.711 2.59,-1.406 3.36,-2.098 1.62,-1.484 3.16,-3.351 4.61,-5.586 l 7.26,-11.437 h -6.95 l -5.55,8.738 c -1.64,2.531 -2.97,4.453 -4.02,5.793 -1.06,1.34 -1.99,2.277 -2.81,2.813 -0.84,0.539 -1.68,0.91 -2.54,1.125 -0.65,0.136 -1.66,0.203 -3.11,0.203 h -6.44 V 677.09 h -5.57" /><path
         id="path22"
         style="fill:#ffffff;fill-opacity:1;fill-rule:nonzero;stroke:none"
         d="m 899.52,433.215 c 75.582,4.578 68.707,98.465 68.707,98.465 -11.446,91.601 -68.707,87.019 -68.707,87.019 z M 656.777,288.945 624.719,479.016 597.234,288.945 Z M 77.4023,108.027 V 730.918 H 219.387 l 50.379,-261.063 57.246,261.063 H 464.414 V 169.863 l 89.316,561.055 h 139.688 l 87.02,-561.055 v 558.762 h 185.503 c 0,0 64.119,-11.445 96.169,-100.762 l -13.73,103.055 h 112.21 l 52.68,-322.898 54.96,320.605 h 316.01 V 611.836 h -93.88 V 483.594 h 89.29 V 353.059 h -87.01 V 233.984 h 91.6 V 108.027 H 1380.43 V 708.02 L 1275.08,108.027 h -125.94 l -66.42,398.465 c 0,0 -11.45,-109.918 -73.28,-160.301 l 80.15,-238.164 H 979.672 L 901.816,316.418 V 108.027 H 679.68 l -11.45,59.543 h -84.734 l -18.32,-59.543 H 354.492 V 337.031 L 299.531,108.027 H 242.285 L 191.902,334.738 V 110.324 L 77.4023,108.027" /></g></g></svg>